<svg width="10" height="10" viewBox="0 0 10 10" fill="none" xmlns="http://www.w3.org/2000/svg">
<path d="M9.63949 1.11069V7.47465C9.63949 7.67391 9.56034 7.865 9.41944 8.0059C9.27854 8.1468 9.08745 8.22595 8.88819 8.22595C8.68893 8.22595 8.49784 8.1468 8.35694 8.0059C8.21604 7.865 8.13689 7.67391 8.13689 7.47465L8.13777 2.92265L1.64123 9.41919C1.50058 9.55984 1.30981 9.63886 1.1109 9.63886C0.911987 9.63886 0.721222 9.55984 0.58057 9.41919C0.439917 9.27854 0.360899 9.08777 0.360899 8.88886C0.360899 8.68995 0.439917 8.49918 0.58057 8.35853L7.07711 1.86199L2.52467 1.86066C2.32541 1.86066 2.13432 1.78151 1.99342 1.64061C1.85252 1.49972 1.77337 1.30862 1.77337 1.10936C1.77337 0.910105 1.85252 0.719009 1.99342 0.578112C2.13432 0.437216 2.32541 0.358061 2.52467 0.358061H8.88863C8.98742 0.357948 9.08525 0.37735 9.17652 0.415154C9.26778 0.452959 9.35068 0.508421 9.42045 0.578354C9.49022 0.648288 9.54549 0.731316 9.58307 0.82267C9.62066 0.914024 9.63984 1.0119 9.63949 1.11069Z" fill="white"/>
</svg>
