<svg width="24" height="19" viewBox="0 0 24 19" fill="none" xmlns="http://www.w3.org/2000/svg">
<path d="M2.11067 17.0947C0.737334 15.636 0 14 0 11.348C0 6.68133 3.276 2.49866 8.04 0.430664L9.23067 2.268C4.784 4.67333 3.91467 7.79466 3.568 9.76266C4.284 9.392 5.22133 9.26266 6.14 9.348C8.54533 9.57066 10.4413 11.5453 10.4413 14C10.4413 15.2377 9.94967 16.4247 9.0745 17.2998C8.19933 18.175 7.01234 18.6667 5.77467 18.6667C5.09021 18.6607 4.41378 18.5186 3.78475 18.2487C3.15572 17.9789 2.58665 17.5866 2.11067 17.0947ZM15.444 17.0947C14.0707 15.636 13.3333 14 13.3333 11.348C13.3333 6.68133 16.6093 2.49866 21.3733 0.430664L22.564 2.268C18.1173 4.67333 17.248 7.79466 16.9013 9.76266C17.6173 9.392 18.5547 9.26266 19.4733 9.348C21.8787 9.57066 23.7747 11.5453 23.7747 14C23.7747 15.2377 23.283 16.4247 22.4078 17.2998C21.5327 18.175 20.3457 18.6667 19.108 18.6667C18.4235 18.6607 17.7471 18.5186 17.1181 18.2487C16.489 17.9789 15.92 17.5866 15.444 17.0947Z" fill="#27563A"/>
</svg>
