<svg width="12" height="7" viewBox="0 0 12 7" fill="none" xmlns="http://www.w3.org/2000/svg">
<path d="M10.8393 1.7143L6.46427 6.0893C6.40331 6.15048 6.33086 6.19902 6.25109 6.23215C6.17132 6.26527 6.0858 6.28232 5.99943 6.28232C5.91306 6.28232 5.82754 6.26527 5.74777 6.23215C5.668 6.19902 5.59555 6.15048 5.53459 6.0893L1.15959 1.7143C1.0363 1.59102 0.967041 1.42381 0.967041 1.24946C0.967041 1.07511 1.0363 0.907898 1.15959 0.784614C1.28287 0.661329 1.45008 0.592069 1.62443 0.592069C1.79878 0.592069 1.96599 0.661329 2.08927 0.784614L5.99998 4.69532L9.91068 0.784067C10.034 0.660783 10.2012 0.591522 10.3755 0.591522C10.5499 0.591522 10.7171 0.660783 10.8404 0.784067C10.9637 0.907351 11.0329 1.07456 11.0329 1.24891C11.0329 1.42326 10.9637 1.59047 10.8404 1.71375L10.8393 1.7143Z" fill="black"/>
</svg>
