<svg width="22" height="19" viewBox="0 0 22 19" fill="none" xmlns="http://www.w3.org/2000/svg">
<path d="M21.5954 5.78813C21.597 6.50236 21.457 7.20982 21.1835 7.86959C20.9099 8.52935 20.5082 9.12833 20.0017 9.63188L11.6298 18.1275C11.56 18.1984 11.4769 18.2546 11.3851 18.2931C11.2934 18.3315 11.1949 18.3512 11.0954 18.3512C10.996 18.3512 10.8975 18.3315 10.8058 18.2931C10.714 18.2546 10.6309 18.1984 10.5611 18.1275L2.1892 9.63188C1.16853 8.61245 0.59463 7.22932 0.593751 5.78675C0.592872 4.34419 1.16509 2.96036 2.18451 1.93969C3.20394 0.919018 4.58707 0.345118 6.02963 0.344239C7.4722 0.34336 8.85603 0.915574 9.8767 1.935L11.0954 3.07406L12.3226 1.93125C13.0843 1.17336 14.0534 0.658129 15.1077 0.450591C16.162 0.243054 17.2541 0.352517 18.2462 0.765163C19.2383 1.17781 20.0859 1.87514 20.682 2.76911C21.2781 3.66309 21.5959 4.71363 21.5954 5.78813Z" fill="#27563A"/>
</svg>
