<svg width="22" height="19" viewBox="0 0 22 19" fill="none" xmlns="http://www.w3.org/2000/svg">
<path d="M19.9062 2.34377C18.8873 1.32738 17.5074 0.755816 16.0682 0.754059C14.629 0.752302 13.2477 1.3205 12.2262 2.33439L11 3.47345L9.7728 2.33064C8.75164 1.31233 7.36777 0.741392 5.92565 0.743414C4.48352 0.745435 3.10127 1.32026 2.08296 2.34142C1.06465 3.36259 0.493711 4.74645 0.495733 6.18858C0.497755 7.6307 1.07258 9.01296 2.09374 10.0313L10.4703 18.5306C10.5401 18.6015 10.6233 18.6578 10.715 18.6962C10.8068 18.7346 10.9052 18.7544 11.0047 18.7544C11.1041 18.7544 11.2026 18.7346 11.2943 18.6962C11.3861 18.6578 11.4693 18.6015 11.5391 18.5306L19.9062 10.0313C20.9253 9.01163 21.4977 7.62907 21.4977 6.18752C21.4977 4.74596 20.9253 3.3634 19.9062 2.34377ZM18.8422 8.97752L11 16.9313L3.15312 8.97002C2.41465 8.23155 1.99979 7.22999 1.99979 6.18564C1.99979 5.1413 2.41465 4.13973 3.15312 3.40127C3.89158 2.6628 4.89315 2.24794 5.93749 2.24794C6.98184 2.24794 7.9834 2.6628 8.72187 3.40127L8.74062 3.42002L10.4891 5.04658C10.6278 5.17574 10.8104 5.24754 11 5.24754C11.1896 5.24754 11.3721 5.17574 11.5109 5.04658L13.2594 3.42002L13.2781 3.40127C14.0171 2.6633 15.0189 2.24911 16.0633 2.24982C17.1076 2.25052 18.1089 2.66606 18.8469 3.40502C19.5848 4.14398 19.999 5.14582 19.9983 6.19017C19.9976 7.23451 19.5821 8.2358 18.8431 8.97377L18.8422 8.97752Z" fill="#313131"/>
</svg>
