<svg width="12" height="20" viewBox="0 0 12 20" fill="none" xmlns="http://www.w3.org/2000/svg">
<path d="M11.1122 17.2629C11.3412 17.4918 11.4698 17.8023 11.4698 18.1261C11.4698 18.4499 11.3412 18.7605 11.1122 18.9894C10.8833 19.2184 10.5728 19.347 10.249 19.347C9.92517 19.347 9.61464 19.2184 9.38568 18.9894L1.26068 10.8644C1.14706 10.7512 1.05691 10.6167 0.995399 10.4685C0.933886 10.3204 0.902222 10.1615 0.902222 10.0011C0.902222 9.84073 0.933886 9.68191 0.995399 9.53377C1.05691 9.38562 1.14706 9.25108 1.26068 9.13786L9.38568 1.01286C9.61464 0.7839 9.92517 0.655273 10.249 0.655273C10.5728 0.655273 10.8833 0.7839 11.1122 1.01286C11.3412 1.24181 11.4698 1.55234 11.4698 1.87614C11.4698 2.19993 11.3412 2.51046 11.1122 2.73942L3.85154 10.0001L11.1122 17.2629Z" fill="#ADADAD"/>
</svg>
