<svg width="34" height="29" viewBox="0 0 34 29" fill="none" xmlns="http://www.w3.org/2000/svg">
<path d="M16.279 0.230864L0 13.4263L1.40402 15.2292L2.95982 13.9633V27.8492C2.95982 28.1544 3.07976 28.4471 3.29325 28.6629C3.50674 28.8788 3.79629 29 4.09821 29H29.9018C30.2037 29 30.4933 28.8788 30.7068 28.6629C30.9202 28.4471 31.0402 28.1544 31.0402 27.8492V13.9633L32.596 15.2292L34 13.4263L17.721 0.230864C17.5099 0.080633 17.2581 0 17 0C16.7419 0 16.4901 0.080633 16.279 0.230864ZM22.3125 16.0347C22.3164 17.2655 21.9049 18.4608 21.146 19.4232C20.3871 20.3856 19.3261 21.0576 18.1384 21.3282V24.0134H15.8616V21.3282C14.6739 21.0576 13.6129 20.3856 12.854 19.4232C12.0951 18.4608 11.6836 17.2655 11.6875 16.0347C11.6875 13.3496 15.4442 9.32191 16.1652 8.55473C16.3948 8.34716 16.692 8.2324 17 8.2324C17.308 8.2324 17.6052 8.34716 17.8348 8.55473C18.5558 9.32191 22.3125 13.3496 22.3125 16.0347Z" fill="white"/>
</svg>
