<svg width="25" height="25" viewBox="0 0 25 25" fill="none" xmlns="http://www.w3.org/2000/svg">
<path d="M24.985 18.8852C24.7621 20.579 23.9303 22.1338 22.6449 23.2591C21.3595 24.3844 19.7084 25.0033 18 25.0002C8.07501 25.0002 1.13108e-05 16.9252 1.13108e-05 7.00024C-0.00305116 5.29185 0.61587 3.64076 1.74118 2.35535C2.86649 1.06995 4.42122 0.238119 6.11501 0.0152353C6.54333 -0.0370635 6.97707 0.0505627 7.35149 0.265033C7.72592 0.479504 8.02094 0.809316 8.19251 1.20524L10.8325 7.09899V7.11399C10.9639 7.41705 11.0181 7.74793 10.9904 8.07708C10.9627 8.40623 10.8539 8.72339 10.6738 9.00024C10.6513 9.03399 10.6275 9.06524 10.6025 9.09649L8.00001 12.1815C8.93626 14.084 10.9263 16.0565 12.8538 16.9952L15.8963 14.4065C15.9261 14.3814 15.9574 14.358 15.99 14.3365C16.2666 14.152 16.5849 14.0394 16.916 14.0088C17.2471 13.9783 17.5806 14.0307 17.8863 14.1615L17.9025 14.169L23.7913 16.8077C24.1879 16.9787 24.5185 17.2735 24.7337 17.6479C24.9489 18.0224 25.037 18.4565 24.985 18.8852Z" fill="#27563A"/>
</svg>
