<svg width="14" height="14" viewBox="0 0 14 14" fill="none" xmlns="http://www.w3.org/2000/svg">
<path d="M7 0.25C5.66498 0.25 4.35994 0.645881 3.2499 1.38758C2.13987 2.12928 1.27471 3.18349 0.763816 4.41689C0.252925 5.65029 0.119252 7.00749 0.379702 8.31686C0.640153 9.62623 1.28303 10.829 2.22703 11.773C3.17104 12.717 4.37377 13.3598 5.68314 13.6203C6.99252 13.8808 8.34971 13.7471 9.58312 13.2362C10.8165 12.7253 11.8707 11.8601 12.6124 10.7501C13.3541 9.64007 13.75 8.33502 13.75 7C13.748 5.2104 13.0362 3.49466 11.7708 2.22922C10.5053 0.963781 8.78961 0.251985 7 0.25ZM7 12.25C5.96165 12.25 4.94662 11.9421 4.08326 11.3652C3.2199 10.7883 2.547 9.9684 2.14964 9.00909C1.75228 8.04978 1.64831 6.99418 1.85088 5.97578C2.05345 4.95738 2.55347 4.02191 3.28769 3.28769C4.02192 2.55346 4.95738 2.05345 5.97578 1.85088C6.99418 1.6483 8.04978 1.75227 9.00909 2.14963C9.9684 2.54699 10.7883 3.2199 11.3652 4.08326C11.9421 4.94661 12.25 5.96165 12.25 7C12.2485 8.39193 11.6949 9.72642 10.7107 10.7107C9.72643 11.6949 8.39193 12.2485 7 12.25ZM11.25 7C11.25 7.19891 11.171 7.38968 11.0303 7.53033C10.8897 7.67098 10.6989 7.75 10.5 7.75H7C6.80109 7.75 6.61032 7.67098 6.46967 7.53033C6.32902 7.38968 6.25 7.19891 6.25 7V3.5C6.25 3.30109 6.32902 3.11032 6.46967 2.96967C6.61032 2.82902 6.80109 2.75 7 2.75C7.19892 2.75 7.38968 2.82902 7.53033 2.96967C7.67098 3.11032 7.75 3.30109 7.75 3.5V6.25H10.5C10.6989 6.25 10.8897 6.32902 11.0303 6.46967C11.171 6.61032 11.25 6.80109 11.25 7Z" fill="#313131"/>
</svg>
