<svg width="29" height="28" viewBox="0 0 29 28" fill="none" xmlns="http://www.w3.org/2000/svg">
<path d="M28.925 2.54242C28.925 2.54242 28.925 2.55492 28.925 2.56117L21.65 26.5537C21.5399 26.9434 21.3132 27.29 21.0004 27.5472C20.6876 27.8044 20.3036 27.9597 19.9 27.9924C19.8425 27.9974 19.785 27.9999 19.7275 27.9999C19.3492 28.0011 18.9785 27.894 18.6592 27.6914C18.3398 27.4887 18.085 27.1989 17.925 26.8562L13.4612 17.4324C13.4172 17.3392 13.403 17.2346 13.4207 17.133C13.4384 17.0314 13.487 16.9378 13.56 16.8649L20.7175 9.70617C20.8971 9.51711 20.9958 9.26536 20.9924 9.00459C20.9891 8.74383 20.884 8.49469 20.6996 8.31029C20.5152 8.12589 20.2661 8.02082 20.0053 8.01748C19.7446 8.01414 19.4928 8.1128 19.3037 8.29242L12.135 15.4499C12.0621 15.5229 11.9685 15.5715 11.8669 15.5892C11.7653 15.6069 11.6607 15.5927 11.5675 15.5487L2.19249 11.1074C1.8243 10.9387 1.51444 10.6646 1.30216 10.3197C1.08987 9.97477 0.984714 9.57463 0.999992 9.16992C1.02035 8.75396 1.17094 8.35493 1.43047 8.02923C1.69 7.70353 2.04533 7.46764 2.44624 7.35492L26.4387 0.0799181H26.4575C26.7991 -0.0160551 27.1601 -0.0194196 27.5034 0.0701696C27.8468 0.159759 28.1601 0.339076 28.4112 0.589724C28.6624 0.840372 28.8423 1.15333 28.9326 1.49648C29.0229 1.83963 29.0203 2.20062 28.925 2.54242Z" fill="#27563A"/>
</svg>
