<svg width="12" height="7" viewBox="0 0 12 7" fill="none" xmlns="http://www.w3.org/2000/svg">
<path d="M0.469402 5.46927L5.4694 0.469265C5.53908 0.399345 5.62187 0.343868 5.71304 0.306015C5.8042 0.26816 5.90194 0.248674 6.00065 0.248674C6.09936 0.248674 6.1971 0.26816 6.28827 0.306015C6.37943 0.343868 6.46222 0.399345 6.5319 0.469265L11.5319 5.46927C11.6728 5.61016 11.752 5.80126 11.752 6.00052C11.752 6.19977 11.6728 6.39087 11.5319 6.53177C11.391 6.67266 11.1999 6.75182 11.0007 6.75182C10.8014 6.75182 10.6103 6.67266 10.4694 6.53177L6.00003 2.06239L1.53065 6.53239C1.38976 6.67329 1.19866 6.75244 0.999403 6.75244C0.800145 6.75244 0.609049 6.67329 0.468153 6.53239C0.327257 6.39149 0.2481 6.2004 0.2481 6.00114C0.2481 5.80188 0.327257 5.61079 0.468153 5.46989L0.469402 5.46927Z" fill="black"/>
</svg>
