<svg width="0" height="0" class="hidden">
  <symbol fill="none" xmlns="http://www.w3.org/2000/svg" viewBox="0 0 10 10" id="angle-arrow">
    <path d="M9.63949 1.11069V7.47465C9.63949 7.67391 9.56034 7.865 9.41944 8.0059C9.27854 8.1468 9.08745 8.22595 8.88819 8.22595C8.68893 8.22595 8.49784 8.1468 8.35694 8.0059C8.21604 7.865 8.13689 7.67391 8.13689 7.47465L8.13777 2.92265L1.64123 9.41919C1.50058 9.55984 1.30981 9.63886 1.1109 9.63886C0.911987 9.63886 0.721222 9.55984 0.58057 9.41919C0.439917 9.27854 0.360899 9.08777 0.360899 8.88886C0.360899 8.68995 0.439917 8.49918 0.58057 8.35853L7.07711 1.86199L2.52467 1.86066C2.32541 1.86066 2.13432 1.78151 1.99342 1.64061C1.85252 1.49972 1.77337 1.30862 1.77337 1.10936C1.77337 0.910105 1.85252 0.719009 1.99342 0.578112C2.13432 0.437216 2.32541 0.358061 2.52467 0.358061H8.88863C8.98742 0.357948 9.08525 0.37735 9.17652 0.415154C9.26778 0.452959 9.35068 0.508421 9.42045 0.578354C9.49022 0.648288 9.54549 0.731316 9.58307 0.82267C9.62066 0.914024 9.63984 1.0119 9.63949 1.11069Z" fill="white"></path>
  </symbol>
  <symbol fill="none" xmlns="http://www.w3.org/2000/svg" viewBox="0 0 24 19" id="double-quotes">
    <path d="M2.11067 17.0947C0.737334 15.636 0 14 0 11.348C0 6.68133 3.276 2.49866 8.04 0.430664L9.23067 2.268C4.784 4.67333 3.91467 7.79466 3.568 9.76266C4.284 9.392 5.22133 9.26266 6.14 9.348C8.54533 9.57066 10.4413 11.5453 10.4413 14C10.4413 15.2377 9.94967 16.4247 9.0745 17.2998C8.19933 18.175 7.01234 18.6667 5.77467 18.6667C5.09021 18.6607 4.41378 18.5186 3.78475 18.2487C3.15572 17.9789 2.58665 17.5866 2.11067 17.0947ZM15.444 17.0947C14.0707 15.636 13.3333 14 13.3333 11.348C13.3333 6.68133 16.6093 2.49866 21.3733 0.430664L22.564 2.268C18.1173 4.67333 17.248 7.79466 16.9013 9.76266C17.6173 9.392 18.5547 9.26266 19.4733 9.348C21.8787 9.57066 23.7747 11.5453 23.7747 14C23.7747 15.2377 23.283 16.4247 22.4078 17.2998C21.5327 18.175 20.3457 18.6667 19.108 18.6667C18.4235 18.6607 17.7471 18.5186 17.1181 18.2487C16.489 17.9789 15.92 17.5866 15.444 17.0947Z" fill="#27563A"></path>
  </symbol>
  <symbol fill="none" xmlns="http://www.w3.org/2000/svg" viewBox="0 0 12 7" id="down-arrow">
    <path d="M10.8393 1.7143L6.46427 6.0893C6.40331 6.15048 6.33086 6.19902 6.25109 6.23215C6.17132 6.26527 6.0858 6.28232 5.99943 6.28232C5.91306 6.28232 5.82754 6.26527 5.74777 6.23215C5.668 6.19902 5.59555 6.15048 5.53459 6.0893L1.15959 1.7143C1.0363 1.59102 0.967041 1.42381 0.967041 1.24946C0.967041 1.07511 1.0363 0.907898 1.15959 0.784614C1.28287 0.661329 1.45008 0.592069 1.62443 0.592069C1.79878 0.592069 1.96599 0.661329 2.08927 0.784614L5.99998 4.69532L9.91068 0.784067C10.034 0.660783 10.2012 0.591522 10.3755 0.591522C10.5499 0.591522 10.7171 0.660783 10.8404 0.784067C10.9637 0.907351 11.0329 1.07456 11.0329 1.24891C11.0329 1.42326 10.9637 1.59047 10.8404 1.71375L10.8393 1.7143Z" fill="white"></path>
  </symbol>
  <symbol fill="none" xmlns="http://www.w3.org/2000/svg" viewBox="0 0 22 19" id="heart">
    <path d="M19.9062 2.34377C18.8873 1.32738 17.5074 0.755816 16.0682 0.754059C14.629 0.752302 13.2477 1.3205 12.2262 2.33439L11 3.47345L9.7728 2.33064C8.75164 1.31233 7.36777 0.741392 5.92565 0.743414C4.48352 0.745435 3.10127 1.32026 2.08296 2.34142C1.06465 3.36259 0.493711 4.74645 0.495733 6.18858C0.497755 7.6307 1.07258 9.01296 2.09374 10.0313L10.4703 18.5306C10.5401 18.6015 10.6233 18.6578 10.715 18.6962C10.8068 18.7346 10.9052 18.7544 11.0047 18.7544C11.1041 18.7544 11.2026 18.7346 11.2943 18.6962C11.3861 18.6578 11.4693 18.6015 11.5391 18.5306L19.9062 10.0313C20.9253 9.01163 21.4977 7.62907 21.4977 6.18752C21.4977 4.74596 20.9253 3.3634 19.9062 2.34377ZM18.8422 8.97752L11 16.9313L3.15312 8.97002C2.41465 8.23155 1.99979 7.22999 1.99979 6.18564C1.99979 5.1413 2.41465 4.13973 3.15312 3.40127C3.89158 2.6628 4.89315 2.24794 5.93749 2.24794C6.98184 2.24794 7.9834 2.6628 8.72187 3.40127L8.74062 3.42002L10.4891 5.04658C10.6278 5.17574 10.8104 5.24754 11 5.24754C11.1896 5.24754 11.3721 5.17574 11.5109 5.04658L13.2594 3.42002L13.2781 3.40127C14.0171 2.6633 15.0189 2.24911 16.0633 2.24982C17.1076 2.25052 18.1089 2.66606 18.8469 3.40502C19.5848 4.14398 19.999 5.14582 19.9983 6.19017C19.9976 7.23451 19.5821 8.2358 18.8431 8.97377L18.8422 8.97752Z" fill="#313131"></path>
  </symbol>
  <symbol fill="none" xmlns="http://www.w3.org/2000/svg" viewBox="0 0 12 20" id="left-arrow">
    <path d="M11.1122 17.2629C11.3412 17.4918 11.4698 17.8023 11.4698 18.1261C11.4698 18.4499 11.3412 18.7605 11.1122 18.9894C10.8833 19.2184 10.5728 19.347 10.249 19.347C9.92517 19.347 9.61464 19.2184 9.38568 18.9894L1.26068 10.8644C1.14706 10.7512 1.05691 10.6167 0.995399 10.4685C0.933886 10.3204 0.902222 10.1615 0.902222 10.0011C0.902222 9.84073 0.933886 9.68191 0.995399 9.53377C1.05691 9.38562 1.14706 9.25108 1.26068 9.13786L9.38568 1.01286C9.61464 0.7839 9.92517 0.655273 10.249 0.655273C10.5728 0.655273 10.8833 0.7839 11.1122 1.01286C11.3412 1.24181 11.4698 1.55234 11.4698 1.87614C11.4698 2.19993 11.3412 2.51046 11.1122 2.73942L3.85154 10.0001L11.1122 17.2629Z" fill="#ADADAD"></path>
  </symbol>
  <symbol fill="none" xmlns="http://www.w3.org/2000/svg" viewBox="0 0 22 28" id="location">
    <path d="M11 0C8.08363 0.00330842 5.28766 1.1633 3.22548 3.22548C1.1633 5.28766 0.00330842 8.08363 0 11C0 20.4125 10 27.5212 10.4263 27.8188C10.5944 27.9365 10.7947 27.9997 11 27.9997C11.2053 27.9997 11.4056 27.9365 11.5737 27.8188C12 27.5212 22 20.4125 22 11C21.9967 8.08363 20.8367 5.28766 18.7745 3.22548C16.7123 1.1633 13.9164 0.00330842 11 0ZM11 7C11.7911 7 12.5645 7.2346 13.2223 7.67412C13.8801 8.11365 14.3928 8.73836 14.6955 9.46927C14.9983 10.2002 15.0775 11.0044 14.9231 11.7804C14.7688 12.5563 14.3878 13.269 13.8284 13.8284C13.269 14.3878 12.5563 14.7688 11.7804 14.9231C11.0044 15.0775 10.2002 14.9983 9.46927 14.6955C8.73836 14.3928 8.11365 13.8801 7.67412 13.2223C7.2346 12.5645 7 11.7911 7 11C7 9.93913 7.42143 8.92172 8.17157 8.17157C8.92172 7.42143 9.93913 7 11 7Z" fill="#27563A"></path>
  </symbol>
  <symbol fill="none" xmlns="http://www.w3.org/2000/svg" viewBox="0 0 34 29" id="logo">
    <path d="M16.279 0.230864L0 13.4263L1.40402 15.2292L2.95982 13.9633V27.8492C2.95982 28.1544 3.07976 28.4471 3.29325 28.6629C3.50674 28.8788 3.79629 29 4.09821 29H29.9018C30.2037 29 30.4933 28.8788 30.7068 28.6629C30.9202 28.4471 31.0402 28.1544 31.0402 27.8492V13.9633L32.596 15.2292L34 13.4263L17.721 0.230864C17.5099 0.080633 17.2581 0 17 0C16.7419 0 16.4901 0.080633 16.279 0.230864ZM22.3125 16.0347C22.3164 17.2655 21.9049 18.4608 21.146 19.4232C20.3871 20.3856 19.3261 21.0576 18.1384 21.3282V24.0134H15.8616V21.3282C14.6739 21.0576 13.6129 20.3856 12.854 19.4232C12.0951 18.4608 11.6836 17.2655 11.6875 16.0347C11.6875 13.3496 15.4442 9.32191 16.1652 8.55473C16.3948 8.34716 16.692 8.2324 17 8.2324C17.308 8.2324 17.6052 8.34716 17.8348 8.55473C18.5558 9.32191 22.3125 13.3496 22.3125 16.0347Z" fill="white"></path>
  </symbol>
  <symbol fill="none" xmlns="http://www.w3.org/2000/svg" viewBox="0 0 25 25" id="phone">
    <path d="M24.985 18.8852C24.7621 20.579 23.9303 22.1338 22.6449 23.2591C21.3595 24.3844 19.7084 25.0033 18 25.0002C8.07501 25.0002 1.13108e-05 16.9252 1.13108e-05 7.00024C-0.00305116 5.29185 0.61587 3.64076 1.74118 2.35535C2.86649 1.06995 4.42122 0.238119 6.11501 0.0152353C6.54333 -0.0370635 6.97707 0.0505627 7.35149 0.265033C7.72592 0.479504 8.02094 0.809316 8.19251 1.20524L10.8325 7.09899V7.11399C10.9639 7.41705 11.0181 7.74793 10.9904 8.07708C10.9627 8.40623 10.8539 8.72339 10.6738 9.00024C10.6513 9.03399 10.6275 9.06524 10.6025 9.09649L8.00001 12.1815C8.93626 14.084 10.9263 16.0565 12.8538 16.9952L15.8963 14.4065C15.9261 14.3814 15.9574 14.358 15.99 14.3365C16.2666 14.152 16.5849 14.0394 16.916 14.0088C17.2471 13.9783 17.5806 14.0307 17.8863 14.1615L17.9025 14.169L23.7913 16.8077C24.1879 16.9787 24.5185 17.2735 24.7337 17.6479C24.9489 18.0224 25.037 18.4565 24.985 18.8852Z" fill="#27563A"></path>
  </symbol>
  <symbol fill="none" xmlns="http://www.w3.org/2000/svg" viewBox="0 0 12 20" id="right-arrow">
    <path d="M10.7372 10.8625L2.61222 18.9875C2.38326 19.2164 2.07273 19.345 1.74894 19.345C1.42515 19.345 1.11462 19.2164 0.885659 18.9875C0.656702 18.7585 0.528076 18.448 0.528076 18.1242C0.528076 17.8004 0.656702 17.4899 0.885659 17.2609L8.14839 10.0002L0.88769 2.73747C0.774323 2.6241 0.684394 2.48951 0.62304 2.34139C0.561686 2.19327 0.530107 2.03451 0.530107 1.87418C0.530107 1.71386 0.561686 1.5551 0.62304 1.40698C0.684394 1.25886 0.774323 1.12427 0.88769 1.0109C1.00106 0.897536 1.13565 0.807607 1.28377 0.746253C1.43189 0.684899 1.59065 0.65332 1.75097 0.65332C1.9113 0.65332 2.07005 0.684899 2.21818 0.746253C2.3663 0.807607 2.50089 0.897536 2.61425 1.0109L10.7393 9.1359C10.8527 9.24926 10.9427 9.38391 11.0041 9.53212C11.0654 9.68034 11.0969 9.8392 11.0967 9.99961C11.0965 10.16 11.0647 10.3188 11.003 10.4669C10.9413 10.6149 10.851 10.7494 10.7372 10.8625Z" fill="black"></path>
  </symbol>
  <symbol fill="none" xmlns="http://www.w3.org/2000/svg" viewBox="0 0 22 22" id="search">
    <path d="M20.7959 19.2041L16.3437 14.75C17.6787 13.0104 18.3019 10.8282 18.087 8.64606C17.8722 6.46389 16.8353 4.44515 15.1867 2.99936C13.5382 1.55356 11.4014 0.78898 9.20984 0.860705C7.01829 0.932429 4.93607 1.83509 3.38558 3.38558C1.83509 4.93607 0.932429 7.01829 0.860705 9.20984C0.78898 11.4014 1.55356 13.5382 2.99936 15.1867C4.44515 16.8353 6.46389 17.8722 8.64606 18.087C10.8282 18.3019 13.0104 17.6787 14.75 16.3437L19.2059 20.8006C19.3106 20.9053 19.4348 20.9883 19.5715 21.0449C19.7083 21.1015 19.8548 21.1307 20.0028 21.1307C20.1508 21.1307 20.2973 21.1015 20.4341 21.0449C20.5708 20.9883 20.695 20.9053 20.7997 20.8006C20.9043 20.696 20.9873 20.5717 21.044 20.435C21.1006 20.2983 21.1298 20.1517 21.1298 20.0037C21.1298 19.8557 21.1006 19.7092 21.044 19.5725C20.9873 19.4357 20.9043 19.3115 20.7997 19.2069L20.7959 19.2041ZM3.12499 9.49999C3.12499 8.23914 3.49888 7.0066 4.19938 5.95823C4.89987 4.90987 5.89551 4.09277 7.06039 3.61026C8.22527 3.12775 9.50707 3.00151 10.7437 3.24749C11.9803 3.49347 13.1162 4.10063 14.0078 4.99219C14.8994 5.88375 15.5065 7.01966 15.7525 8.25629C15.9985 9.49292 15.8722 10.7747 15.3897 11.9396C14.9072 13.1045 14.0901 14.1001 13.0418 14.8006C11.9934 15.5011 10.7608 15.875 9.49999 15.875C7.80977 15.8733 6.18927 15.201 4.99411 14.0059C3.79894 12.8107 3.12673 11.1902 3.12499 9.49999Z" fill="white"></path>
  </symbol>
  <symbol fill="none" xmlns="http://www.w3.org/2000/svg" viewBox="0 0 14 14" id="small-time">
    <path d="M7 0.25C5.66498 0.25 4.35994 0.645881 3.2499 1.38758C2.13987 2.12928 1.27471 3.18349 0.763816 4.41689C0.252925 5.65029 0.119252 7.00749 0.379702 8.31686C0.640153 9.62623 1.28303 10.829 2.22703 11.773C3.17104 12.717 4.37377 13.3598 5.68314 13.6203C6.99252 13.8808 8.34971 13.7471 9.58312 13.2362C10.8165 12.7253 11.8707 11.8601 12.6124 10.7501C13.3541 9.64007 13.75 8.33502 13.75 7C13.748 5.2104 13.0362 3.49466 11.7708 2.22922C10.5053 0.963781 8.78961 0.251985 7 0.25ZM7 12.25C5.96165 12.25 4.94662 11.9421 4.08326 11.3652C3.2199 10.7883 2.547 9.9684 2.14964 9.00909C1.75228 8.04978 1.64831 6.99418 1.85088 5.97578C2.05345 4.95738 2.55347 4.02191 3.28769 3.28769C4.02192 2.55346 4.95738 2.05345 5.97578 1.85088C6.99418 1.6483 8.04978 1.75227 9.00909 2.14963C9.9684 2.54699 10.7883 3.2199 11.3652 4.08326C11.9421 4.94661 12.25 5.96165 12.25 7C12.2485 8.39193 11.6949 9.72642 10.7107 10.7107C9.72643 11.6949 8.39193 12.2485 7 12.25ZM11.25 7C11.25 7.19891 11.171 7.38968 11.0303 7.53033C10.8897 7.67098 10.6989 7.75 10.5 7.75H7C6.80109 7.75 6.61032 7.67098 6.46967 7.53033C6.32902 7.38968 6.25 7.19891 6.25 7V3.5C6.25 3.30109 6.32902 3.11032 6.46967 2.96967C6.61032 2.82902 6.80109 2.75 7 2.75C7.19892 2.75 7.38968 2.82902 7.53033 2.96967C7.67098 3.11032 7.75 3.30109 7.75 3.5V6.25H10.5C10.6989 6.25 10.8897 6.32902 11.0303 6.46967C11.171 6.61032 11.25 6.80109 11.25 7Z" fill="#313131"></path>
  </symbol>
  <symbol fill="none" xmlns="http://www.w3.org/2000/svg" viewBox="0 0 20 20" id="social-facebook">
    <path d="M20 10C20 4.48 15.52 0 10 0C4.48 0 0 4.48 0 10C0 14.84 3.44 18.87 8 19.8V13H6V10H8V7.5C8 5.57 9.57 4 11.5 4H14V7H12C11.45 7 11 7.45 11 8V10H14V13H11V19.95C16.05 19.45 20 15.19 20 10Z" fill="#213123"></path>
  </symbol>
  <symbol fill="none" xmlns="http://www.w3.org/2000/svg" viewBox="0 0 18 18" id="social-linkedin">
    <path d="M16 0C16.5304 0 17.0391 0.210714 17.4142 0.585786C17.7893 0.960859 18 1.46957 18 2V16C18 16.5304 17.7893 17.0391 17.4142 17.4142C17.0391 17.7893 16.5304 18 16 18H2C1.46957 18 0.960859 17.7893 0.585786 17.4142C0.210714 17.0391 0 16.5304 0 16V2C0 1.46957 0.210714 0.960859 0.585786 0.585786C0.960859 0.210714 1.46957 0 2 0H16ZM15.5 15.5V10.2C15.5 9.33539 15.1565 8.5062 14.5452 7.89483C13.9338 7.28346 13.1046 6.94 12.24 6.94C11.39 6.94 10.4 7.46 9.92 8.24V7.13H7.13V15.5H9.92V10.57C9.92 9.8 10.54 9.17 11.31 9.17C11.6813 9.17 12.0374 9.3175 12.2999 9.58005C12.5625 9.8426 12.71 10.1987 12.71 10.57V15.5H15.5ZM3.88 5.56C4.32556 5.56 4.75288 5.383 5.06794 5.06794C5.383 4.75288 5.56 4.32556 5.56 3.88C5.56 2.95 4.81 2.19 3.88 2.19C3.43178 2.19 3.00193 2.36805 2.68499 2.68499C2.36805 3.00193 2.19 3.43178 2.19 3.88C2.19 4.81 2.95 5.56 3.88 5.56ZM5.27 15.5V7.13H2.5V15.5H5.27Z" fill="#213123"></path>
  </symbol>
  <symbol fill="none" xmlns="http://www.w3.org/2000/svg" viewBox="0 0 14 13" id="star">
    <path d="M2.88325 12.6667L3.96659 7.98333L0.333252 4.83333L5.13325 4.41667L6.99992 0L8.86659 4.41667L13.6666 4.83333L10.0333 7.98333L11.1166 12.6667L6.99992 10.1833L2.88325 12.6667Z" fill="#E2E2E2"></path>
  </symbol>
  <symbol fill="none" xmlns="http://www.w3.org/2000/svg" viewBox="0 0 22 17" id="social-twitter">
    <path d="M21.46 2C20.69 2.35 19.86 2.58 19 2.69C19.88 2.16 20.56 1.32 20.88 0.31C20.05 0.81 19.13 1.16 18.16 1.36C17.37 0.5 16.26 0 15 0C12.65 0 10.73 1.92 10.73 4.29C10.73 4.63 10.77 4.96 10.84 5.27C7.27998 5.09 4.10998 3.38 1.99998 0.79C1.62998 1.42 1.41998 2.16 1.41998 2.94C1.41998 4.43 2.16998 5.75 3.32998 6.5C2.61998 6.5 1.95998 6.3 1.37998 6V6.03C1.37998 8.11 2.85998 9.85 4.81998 10.24C4.19071 10.4122 3.53007 10.4362 2.88998 10.31C3.16158 11.1625 3.69351 11.9084 4.41099 12.4429C5.12847 12.9775 5.99543 13.2737 6.88998 13.29C5.37361 14.4904 3.49397 15.1393 1.55998 15.13C1.21998 15.13 0.879978 15.11 0.539978 15.07C2.43998 16.29 4.69998 17 7.11998 17C15 17 19.33 10.46 19.33 4.79C19.33 4.6 19.33 4.42 19.32 4.23C20.16 3.63 20.88 2.87 21.46 2Z" fill="#213123"></path>
  </symbol>
  <symbol fill="none" xmlns="http://www.w3.org/2000/svg" viewBox="0 0 20 20" id="social-insta">
    <path d="M10 0C12.717 0 13.056 0.00999994 14.122 0.0599999C15.187 0.11 15.912 0.277 16.55 0.525C17.21 0.779 17.766 1.123 18.322 1.678C18.8305 2.1779 19.224 2.78259 19.475 3.45C19.722 4.087 19.89 4.813 19.94 5.878C19.987 6.944 20 7.283 20 10C20 12.717 19.99 13.056 19.94 14.122C19.89 15.187 19.722 15.912 19.475 16.55C19.2247 17.2178 18.8311 17.8226 18.322 18.322C17.822 18.8303 17.2173 19.2238 16.55 19.475C15.913 19.722 15.187 19.89 14.122 19.94C13.056 19.987 12.717 20 10 20C7.283 20 6.944 19.99 5.878 19.94C4.813 19.89 4.088 19.722 3.45 19.475C2.78233 19.2245 2.17753 18.8309 1.678 18.322C1.16941 17.8222 0.775931 17.2175 0.525 16.55C0.277 15.913 0.11 15.187 0.0599999 14.122C0.0129999 13.056 0 12.717 0 10C0 7.283 0.00999994 6.944 0.0599999 5.878C0.11 4.812 0.277 4.088 0.525 3.45C0.775236 2.78218 1.1688 2.17732 1.678 1.678C2.17767 1.16923 2.78243 0.775729 3.45 0.525C4.088 0.277 4.812 0.11 5.878 0.0599999C6.944 0.0129999 7.283 0 10 0ZM10 5C8.67392 5 7.40215 5.52678 6.46447 6.46447C5.52678 7.40215 5 8.67392 5 10C5 11.3261 5.52678 12.5979 6.46447 13.5355C7.40215 14.4732 8.67392 15 10 15C11.3261 15 12.5979 14.4732 13.5355 13.5355C14.4732 12.5979 15 11.3261 15 10C15 8.67392 14.4732 7.40215 13.5355 6.46447C12.5979 5.52678 11.3261 5 10 5ZM16.5 4.75C16.5 4.41848 16.3683 4.10054 16.1339 3.86612C15.8995 3.6317 15.5815 3.5 15.25 3.5C14.9185 3.5 14.6005 3.6317 14.3661 3.86612C14.1317 4.10054 14 4.41848 14 4.75C14 5.08152 14.1317 5.39946 14.3661 5.63388C14.6005 5.8683 14.9185 6 15.25 6C15.5815 6 15.8995 5.8683 16.1339 5.63388C16.3683 5.39946 16.5 5.08152 16.5 4.75ZM10 7C10.7956 7 11.5587 7.31607 12.1213 7.87868C12.6839 8.44129 13 9.20435 13 10C13 10.7956 12.6839 11.5587 12.1213 12.1213C11.5587 12.6839 10.7956 13 10 13C9.20435 13 8.44129 12.6839 7.87868 12.1213C7.31607 11.5587 7 10.7956 7 10C7 9.20435 7.31607 8.44129 7.87868 7.87868C8.44129 7.31607 9.20435 7 10 7Z" fill="#213123"></path>
  </symbol>
  <symbol fill="none" xmlns="http://www.w3.org/2000/svg" viewBox="0 0 29 28" id="telegram">
    <path d="M28.925 2.54242C28.925 2.54242 28.925 2.55492 28.925 2.56117L21.65 26.5537C21.5399 26.9434 21.3132 27.29 21.0004 27.5472C20.6876 27.8044 20.3036 27.9597 19.9 27.9924C19.8425 27.9974 19.785 27.9999 19.7275 27.9999C19.3492 28.0011 18.9785 27.894 18.6592 27.6914C18.3398 27.4887 18.085 27.1989 17.925 26.8562L13.4612 17.4324C13.4172 17.3392 13.403 17.2346 13.4207 17.133C13.4384 17.0314 13.487 16.9378 13.56 16.8649L20.7175 9.70617C20.8971 9.51711 20.9958 9.26536 20.9924 9.00459C20.9891 8.74383 20.884 8.49469 20.6996 8.31029C20.5152 8.12589 20.2661 8.02082 20.0053 8.01748C19.7446 8.01414 19.4928 8.1128 19.3037 8.29242L12.135 15.4499C12.0621 15.5229 11.9685 15.5715 11.8669 15.5892C11.7653 15.6069 11.6607 15.5927 11.5675 15.5487L2.19249 11.1074C1.8243 10.9387 1.51444 10.6646 1.30216 10.3197C1.08987 9.97477 0.984714 9.57463 0.999992 9.16992C1.02035 8.75396 1.17094 8.35493 1.43047 8.02923C1.69 7.70353 2.04533 7.46764 2.44624 7.35492L26.4387 0.0799181H26.4575C26.7991 -0.0160551 27.1601 -0.0194196 27.5034 0.0701696C27.8468 0.159759 28.1601 0.339076 28.4112 0.589724C28.6624 0.840372 28.8423 1.15333 28.9326 1.49648C29.0229 1.83963 29.0203 2.20062 28.925 2.54242Z" fill="#27563A"></path>
  </symbol>
  <symbol fill="none" xmlns="http://www.w3.org/2000/svg" viewBox="0 0 14 11" id="tick">
    <path d="M13.5306 2.03063L5.5306 10.0306C5.46092 10.1005 5.37813 10.156 5.28696 10.1939C5.1958 10.2317 5.09806 10.2512 4.99935 10.2512C4.90064 10.2512 4.8029 10.2317 4.71173 10.1939C4.62057 10.156 4.53778 10.1005 4.4681 10.0306L0.968098 6.53063C0.898333 6.46086 0.842993 6.37804 0.805236 6.28689C0.76748 6.19573 0.748047 6.09804 0.748047 5.99938C0.748047 5.90071 0.76748 5.80302 0.805236 5.71187C0.842993 5.62071 0.898333 5.53789 0.968098 5.46813C1.03786 5.39836 1.12069 5.34302 1.21184 5.30526C1.30299 5.26751 1.40069 5.24807 1.49935 5.24807C1.59801 5.24807 1.69571 5.26751 1.78686 5.30526C1.87801 5.34302 1.96083 5.39836 2.0306 5.46813L4.99997 8.4375L12.4693 0.969376C12.6102 0.828479 12.8013 0.749325 13.0006 0.749325C13.1999 0.749325 13.391 0.828479 13.5318 0.969376C13.6727 1.11027 13.7519 1.30137 13.7519 1.50063C13.7519 1.69988 13.6727 1.89098 13.5318 2.03188L13.5306 2.03063Z" fill="black"></path>
  </symbol>
  <symbol fill="none" xmlns="http://www.w3.org/2000/svg" viewBox="0 0 26 26" id="time">
    <path d="M13 0C10.4288 0 7.91543 0.762437 5.77759 2.1909C3.63975 3.61935 1.97351 5.64968 0.989572 8.02512C0.0056327 10.4006 -0.251811 13.0144 0.249797 15.5362C0.751405 18.0579 1.98953 20.3743 3.80762 22.1924C5.6257 24.0105 7.94208 25.2486 10.4638 25.7502C12.9856 26.2518 15.5995 25.9944 17.9749 25.0104C20.3503 24.0265 22.3807 22.3603 23.8091 20.2224C25.2376 18.0846 26 15.5712 26 13C25.9964 9.5533 24.6256 6.24882 22.1884 3.81163C19.7512 1.37445 16.4467 0.00363977 13 0ZM20 14H13C12.7348 14 12.4804 13.8946 12.2929 13.7071C12.1054 13.5196 12 13.2652 12 13V6C12 5.73478 12.1054 5.48043 12.2929 5.29289C12.4804 5.10536 12.7348 5 13 5C13.2652 5 13.5196 5.10536 13.7071 5.29289C13.8946 5.48043 14 5.73478 14 6V12H20C20.2652 12 20.5196 12.1054 20.7071 12.2929C20.8946 12.4804 21 12.7348 21 13C21 13.2652 20.8946 13.5196 20.7071 13.7071C20.5196 13.8946 20.2652 14 20 14Z" fill="#27563A"></path>
  </symbol>
  <symbol fill="none" xmlns="http://www.w3.org/2000/svg" viewBox="0 0 12 7" id="up-arrow">
    <path d="M0.469402 5.46927L5.4694 0.469265C5.53908 0.399345 5.62187 0.343868 5.71304 0.306015C5.8042 0.26816 5.90194 0.248674 6.00065 0.248674C6.09936 0.248674 6.1971 0.26816 6.28827 0.306015C6.37943 0.343868 6.46222 0.399345 6.5319 0.469265L11.5319 5.46927C11.6728 5.61016 11.752 5.80126 11.752 6.00052C11.752 6.19977 11.6728 6.39087 11.5319 6.53177C11.391 6.67266 11.1999 6.75182 11.0007 6.75182C10.8014 6.75182 10.6103 6.67266 10.4694 6.53177L6.00003 2.06239L1.53065 6.53239C1.38976 6.67329 1.19866 6.75244 0.999403 6.75244C0.800145 6.75244 0.609049 6.67329 0.468153 6.53239C0.327257 6.39149 0.2481 6.2004 0.2481 6.00114C0.2481 5.80188 0.327257 5.61079 0.468153 5.46989L0.469402 5.46927Z" fill="black"></path>
  </symbol>
</svg>